<svg width="960" height="341" viewBox="0 0 960 341" fill="none" xmlns="http://www.w3.org/2000/svg">
<g filter="url(#filter0_d_43_2250)">
<path d="M101.891 5.54688H31.4609V28.9844H54.1367V100H79.2734V28.9844H101.891V5.54688ZM170.499 5.54688V40.9961H142.433V5.54688H117.355V100H142.433V64.4336H170.499V100H195.519V5.54688H170.499ZM277.955 28.8672V5.54688H216.725V100H277.955V76.5039H241.51V62.9688H271.51V42.0508H241.51V28.8672H277.955ZM338.239 100H363.317V72.168H373.923C393.727 72.168 409.606 56.875 409.606 38.6523C409.606 20.1953 393.376 5.54688 373.923 5.54688H338.239V100ZM373.923 49.082L363.317 49.0234V28.6914H373.923C380.602 28.6914 385.407 33.0273 385.407 38.7695C385.407 44.5703 380.661 49.1406 373.923 49.082ZM504.875 100L479.562 62.0898C488.82 57.8711 495.91 48.0273 495.91 36.25C495.91 19.3164 481.32 5.54688 460.93 5.54688H425.07L425.188 100H450.266V58.9844L475.52 100H504.875ZM450.148 28.1055H460.402C465.676 28.1055 470.598 31.7383 470.598 37.5977C470.598 43.3984 465.734 47.1484 460.402 47.0898L450.148 47.0312V28.1055ZM518.698 100H543.777V5.54688H518.698V100ZM656.155 4.66797L615.608 60.2148L575.061 4.66797H564.983V100H590.061V62.5586L615.549 98.418H615.725L641.155 62.5586V100H666.233V4.66797H656.155ZM748.67 28.8672V5.54688H687.439V100H748.67V76.5039H712.224V62.9688H742.224V42.0508H712.224V28.8672H748.67Z" fill="white"/>
</g>
<g filter="url(#filter1_d_43_2250)">
<path d="M112.477 251H139.957L96.0117 155.375H84.1172L40.2305 251H67.6523L72.457 239.984H107.73L112.477 251ZM80.3672 221.645L90.0938 199.262L99.7617 221.645H80.3672ZM154.191 251H179.269V223.168H189.874C209.679 223.168 225.558 207.875 225.558 189.652C225.558 171.195 209.327 156.547 189.874 156.547H154.191V251ZM189.874 200.082L179.269 200.023V179.691H189.874C196.554 179.691 201.359 184.027 201.359 189.77C201.359 195.57 196.613 200.141 189.874 200.082ZM302.252 179.867V156.547H241.022V251H302.252V227.504H265.807V213.969H295.807V193.051H265.807V179.867H302.252ZM362.536 251H387.614V223.168H398.22C418.024 223.168 433.903 207.875 433.903 189.652C433.903 171.195 417.673 156.547 398.22 156.547H362.536V251ZM398.22 200.082L387.614 200.023V179.691H398.22C404.899 179.691 409.704 184.027 409.704 189.77C409.704 195.57 404.958 200.141 398.22 200.082ZM474.445 227.445V156.547H449.367V251H510.598V227.445H474.445ZM591.394 251H618.874L574.929 155.375H563.034L519.148 251H546.57L551.374 239.984H586.648L591.394 251ZM559.284 221.645L569.011 199.262L578.679 221.645H559.284ZM689.592 156.43V202.484L641.194 155.609H633.108V251.059H658.186V204.887L706.76 251.938H714.729V156.43H689.592ZM797.224 179.867V156.547H735.994V251H797.224V227.504H760.779V213.969H790.779V193.051H760.779V179.867H797.224ZM880.716 156.547H810.286V179.984H832.962V251H858.098V179.984H880.716V156.547Z" fill="white"/>
</g>
<path d="M342.203 107H341.203V108H342.203V107ZM367.281 107V108H368.281V107H367.281ZM367.281 79.168V78.168H366.281V79.168H367.281ZM342.203 12.5469V11.5469H341.203V12.5469H342.203ZM377.887 56.082L377.895 55.0821L377.892 55.082L377.887 56.082ZM367.281 56.0234H366.281V57.0179L367.276 57.0234L367.281 56.0234ZM367.281 35.6914V34.6914H366.281V35.6914H367.281ZM342.203 108H367.281V106H342.203V108ZM368.281 107V79.168H366.281V107H368.281ZM367.281 80.168H377.887V78.168H367.281V80.168ZM377.887 80.168C398.191 80.168 414.57 64.4783 414.57 45.6523H412.57C412.57 63.2717 397.192 78.168 377.887 78.168V80.168ZM414.57 45.6523C414.57 26.566 397.812 11.5469 377.887 11.5469V13.5469C396.868 13.5469 412.57 27.8246 412.57 45.6523H414.57ZM377.887 11.5469H342.203V13.5469H377.887V11.5469ZM341.203 12.5469V107H343.203V12.5469H341.203ZM377.892 55.082L367.287 55.0235L367.276 57.0234L377.881 57.082L377.892 55.082ZM368.281 56.0234V35.6914H366.281V56.0234H368.281ZM367.281 36.6914H377.887V34.6914H367.281V36.6914ZM377.887 36.6914C384.133 36.6914 388.371 40.6911 388.371 45.7695H390.371C390.371 39.3636 385 34.6914 377.887 34.6914V36.6914ZM388.371 45.7695C388.371 50.9423 384.153 55.1365 377.895 55.0821L377.878 57.082C385.097 57.1448 390.371 52.1983 390.371 45.7695H388.371ZM508.839 107V108H510.709L509.671 106.445L508.839 107ZM483.527 69.0898L483.112 68.1799L482.042 68.6674L482.695 69.6451L483.527 69.0898ZM429.034 12.5469V11.5469H428.033L428.034 12.5481L429.034 12.5469ZM429.152 107L428.152 107.001L428.153 108H429.152V107ZM454.23 107V108H455.23V107H454.23ZM454.23 65.9844L455.081 65.4601L453.23 62.4529V65.9844H454.23ZM479.484 107L478.632 107.524L478.925 108H479.484V107ZM454.113 35.1055V34.1055H453.113V35.1055H454.113ZM464.366 54.0898L464.377 53.0899L464.372 53.0899L464.366 54.0898ZM454.113 54.0312H453.113V55.0256L454.107 55.0312L454.113 54.0312ZM509.671 106.445L484.358 68.5345L482.695 69.6451L508.007 107.555L509.671 106.445ZM483.941 69.9998C493.542 65.6249 500.874 55.4342 500.874 43.25H498.874C498.874 54.6205 492.027 64.1173 483.112 68.1799L483.941 69.9998ZM500.874 43.25C500.874 25.6648 485.732 11.5469 464.894 11.5469V13.5469C484.837 13.5469 498.874 26.968 498.874 43.25H500.874ZM464.894 11.5469H429.034V13.5469H464.894V11.5469ZM428.034 12.5481L428.152 107.001L430.152 106.999L430.034 12.5456L428.034 12.5481ZM429.152 108H454.23V106H429.152V108ZM455.23 107V65.9844H453.23V107H455.23ZM453.378 66.5087L478.632 107.524L480.335 106.476L455.081 65.4601L453.378 66.5087ZM479.484 108H508.839V106H479.484V108ZM454.113 36.1055H464.366V34.1055H454.113V36.1055ZM464.366 36.1055C469.225 36.1055 473.562 39.4186 473.562 44.5977H475.562C475.562 38.058 470.055 34.1055 464.366 34.1055V36.1055ZM473.562 44.5977C473.562 49.734 469.267 53.1436 464.377 53.0899L464.355 55.0898C470.13 55.1532 475.562 51.0628 475.562 44.5977H473.562ZM464.372 53.0899L454.118 53.0313L454.107 55.0312L464.361 55.0898L464.372 53.0899ZM455.113 54.0312V35.1055H453.113V54.0312H455.113ZM522.663 107H521.663V108H522.663V107ZM547.741 107V108H548.741V107H547.741ZM547.741 12.5469H548.741V11.5469H547.741V12.5469ZM522.663 12.5469V11.5469H521.663V12.5469H522.663ZM522.663 108H547.741V106H522.663V108ZM548.741 107V12.5469H546.741V107H548.741ZM547.741 11.5469H522.663V13.5469H547.741V11.5469ZM521.663 12.5469V107H523.663V12.5469H521.663ZM660.119 11.668V10.668H659.611L659.311 11.0784L660.119 11.668ZM619.572 67.2148L618.764 67.8044L619.572 68.9109L620.38 67.8044L619.572 67.2148ZM579.025 11.668L579.833 11.0784L579.533 10.668H579.025V11.668ZM568.947 11.668V10.668H567.947V11.668H568.947ZM568.947 107H567.947V108H568.947V107ZM594.025 107V108H595.025V107H594.025ZM594.025 69.5586L594.84 68.9792L593.025 66.4256V69.5586H594.025ZM619.513 105.418L618.698 105.997L618.997 106.418H619.513V105.418ZM619.689 105.418V106.418H620.206L620.505 105.996L619.689 105.418ZM645.119 69.5586H646.119V66.4197L644.303 68.9801L645.119 69.5586ZM645.119 107H644.119V108H645.119V107ZM670.197 107V108H671.197V107H670.197ZM670.197 11.668H671.197V10.668H670.197V11.668ZM659.311 11.0784L618.764 66.6253L620.38 67.8044L660.926 12.2576L659.311 11.0784ZM620.38 66.6253L579.833 11.0784L578.217 12.2576L618.764 67.8044L620.38 66.6253ZM579.025 10.668H568.947V12.668H579.025V10.668ZM567.947 11.668V107H569.947V11.668H567.947ZM568.947 108H594.025V106H568.947V108ZM595.025 107V69.5586H593.025V107H595.025ZM593.21 70.1379L618.698 105.997L620.328 104.839L594.84 68.9792L593.21 70.1379ZM619.513 106.418H619.689V104.418H619.513V106.418ZM620.505 105.996L645.934 70.1371L644.303 68.9801L618.873 104.84L620.505 105.996ZM644.119 69.5586V107H646.119V69.5586H644.119ZM645.119 108H670.197V106H645.119V108ZM671.197 107V11.668H669.197V107H671.197ZM670.197 10.668H660.119V12.668H670.197V10.668ZM752.634 35.8672V36.8672H753.634V35.8672H752.634ZM752.634 12.5469H753.634V11.5469H752.634V12.5469ZM691.403 12.5469V11.5469H690.403V12.5469H691.403ZM691.403 107H690.403V108H691.403V107ZM752.634 107V108H753.634V107H752.634ZM752.634 83.5039H753.634V82.5039H752.634V83.5039ZM716.188 83.5039H715.188V84.5039H716.188V83.5039ZM716.188 69.9688V68.9688H715.188V69.9688H716.188ZM746.188 69.9688V70.9688H747.188V69.9688H746.188ZM746.188 49.0508H747.188V48.0508H746.188V49.0508ZM716.188 49.0508H715.188V50.0508H716.188V49.0508ZM716.188 35.8672V34.8672H715.188V35.8672H716.188ZM753.634 35.8672V12.5469H751.634V35.8672H753.634ZM752.634 11.5469H691.403V13.5469H752.634V11.5469ZM690.403 12.5469V107H692.403V12.5469H690.403ZM691.403 108H752.634V106H691.403V108ZM753.634 107V83.5039H751.634V107H753.634ZM752.634 82.5039H716.188V84.5039H752.634V82.5039ZM717.188 83.5039V69.9688H715.188V83.5039H717.188ZM716.188 70.9688H746.188V68.9688H716.188V70.9688ZM747.188 69.9688V49.0508H745.188V69.9688H747.188ZM746.188 48.0508H716.188V50.0508H746.188V48.0508ZM717.188 49.0508V35.8672H715.188V49.0508H717.188ZM716.188 36.8672H752.634V34.8672H716.188V36.8672Z" fill="white"/>
<path d="M121.477 256L120.558 256.396L120.819 257H121.477V256ZM148.957 256V257H150.517L149.866 255.582L148.957 256ZM105.012 160.375L105.92 159.957L105.653 159.375H105.012V160.375ZM93.1172 160.375V159.375H92.4758L92.2083 159.958L93.1172 160.375ZM49.2305 256L48.3216 255.583L47.6712 257H49.2305V256ZM76.6523 256V257H77.3072L77.5689 256.4L76.6523 256ZM81.457 244.984V243.984H80.8022L80.5404 244.585L81.457 244.984ZM116.73 244.984L117.649 244.589L117.388 243.984H116.73V244.984ZM89.3672 226.645L88.45 226.246L87.8423 227.645H89.3672V226.645ZM99.0938 204.262L100.012 203.865L99.0965 201.746L98.1766 203.863L99.0938 204.262ZM108.762 226.645V227.645H110.283L109.68 226.248L108.762 226.645ZM121.477 257H148.957V255H121.477V257ZM149.866 255.582L105.92 159.957L104.103 160.793L148.048 256.418L149.866 255.582ZM105.012 159.375H93.1172V161.375H105.012V159.375ZM92.2083 159.958L48.3216 255.583L50.1393 256.417L94.026 160.792L92.2083 159.958ZM49.2305 257H76.6523V255H49.2305V257ZM77.5689 256.4L82.3736 245.384L80.5404 244.585L75.7357 255.6L77.5689 256.4ZM81.457 245.984H116.73V243.984H81.457V245.984ZM115.812 245.38L120.558 256.396L122.395 255.604L117.649 244.589L115.812 245.38ZM90.2843 227.043L100.011 204.66L98.1766 203.863L88.45 226.246L90.2843 227.043ZM98.1757 204.658L107.844 227.041L109.68 226.248L100.012 203.865L98.1757 204.658ZM108.762 225.645H89.3672V227.645H108.762V225.645ZM163.191 256H162.191V257H163.191V256ZM188.269 256V257H189.269V256H188.269ZM188.269 228.168V227.168H187.269V228.168H188.269ZM163.191 161.547V160.547H162.191V161.547H163.191ZM198.874 205.082L198.883 204.082L198.88 204.082L198.874 205.082ZM188.269 205.023H187.269V206.018L188.263 206.023L188.269 205.023ZM188.269 184.691V183.691H187.269V184.691H188.269ZM163.191 257H188.269V255H163.191V257ZM189.269 256V228.168H187.269V256H189.269ZM188.269 229.168H198.874V227.168H188.269V229.168ZM198.874 229.168C219.179 229.168 235.558 213.478 235.558 194.652H233.558C233.558 212.272 218.179 227.168 198.874 227.168V229.168ZM235.558 194.652C235.558 175.566 218.799 160.547 198.874 160.547V162.547C217.855 162.547 233.558 176.825 233.558 194.652H235.558ZM198.874 160.547H163.191V162.547H198.874V160.547ZM162.191 161.547V256H164.191V161.547H162.191ZM198.88 204.082L188.274 204.023L188.263 206.023L198.869 206.082L198.88 204.082ZM189.269 205.023V184.691H187.269V205.023H189.269ZM188.269 185.691H198.874V183.691H188.269V185.691ZM198.874 185.691C205.12 185.691 209.359 189.691 209.359 194.77H211.359C211.359 188.364 205.988 183.691 198.874 183.691V185.691ZM209.359 194.77C209.359 199.942 205.141 204.136 198.883 204.082L198.866 206.082C206.084 206.145 211.359 201.198 211.359 194.77H209.359ZM311.252 184.867V185.867H312.252V184.867H311.252ZM311.252 161.547H312.252V160.547H311.252V161.547ZM250.022 161.547V160.547H249.022V161.547H250.022ZM250.022 256H249.022V257H250.022V256ZM311.252 256V257H312.252V256H311.252ZM311.252 232.504H312.252V231.504H311.252V232.504ZM274.807 232.504H273.807V233.504H274.807V232.504ZM274.807 218.969V217.969H273.807V218.969H274.807ZM304.807 218.969V219.969H305.807V218.969H304.807ZM304.807 198.051H305.807V197.051H304.807V198.051ZM274.807 198.051H273.807V199.051H274.807V198.051ZM274.807 184.867V183.867H273.807V184.867H274.807ZM312.252 184.867V161.547H310.252V184.867H312.252ZM311.252 160.547H250.022V162.547H311.252V160.547ZM249.022 161.547V256H251.022V161.547H249.022ZM250.022 257H311.252V255H250.022V257ZM312.252 256V232.504H310.252V256H312.252ZM311.252 231.504H274.807V233.504H311.252V231.504ZM275.807 232.504V218.969H273.807V232.504H275.807ZM274.807 219.969H304.807V217.969H274.807V219.969ZM305.807 218.969V198.051H303.807V218.969H305.807ZM304.807 197.051H274.807V199.051H304.807V197.051ZM275.807 198.051V184.867H273.807V198.051H275.807ZM274.807 185.867H311.252V183.867H274.807V185.867Z" fill="white"/>
<defs>
<filter id="filter0_d_43_2250" x="0.460938" y="4.66797" width="779.208" height="161.332" filterUnits="userSpaceOnUse" color-interpolation-filters="sRGB">
<feFlood flood-opacity="0" result="BackgroundImageFix"/>
<feColorMatrix in="SourceAlpha" type="matrix" values="0 0 0 0 0 0 0 0 0 0 0 0 0 0 0 0 0 0 127 0" result="hardAlpha"/>
<feOffset dy="35"/>
<feGaussianBlur stdDeviation="15.5"/>
<feComposite in2="hardAlpha" operator="out"/>
<feColorMatrix type="matrix" values="0 0 0 0 0 0 0 0 0 0 0 0 0 0 0 0 0 0 1 0"/>
<feBlend mode="normal" in2="BackgroundImageFix" result="effect1_dropShadow_43_2250"/>
<feBlend mode="normal" in="SourceGraphic" in2="effect1_dropShadow_43_2250" result="shape"/>
</filter>
<filter id="filter1_d_43_2250" x="9.23047" y="155.375" width="902.485" height="162.562" filterUnits="userSpaceOnUse" color-interpolation-filters="sRGB">
<feFlood flood-opacity="0" result="BackgroundImageFix"/>
<feColorMatrix in="SourceAlpha" type="matrix" values="0 0 0 0 0 0 0 0 0 0 0 0 0 0 0 0 0 0 127 0" result="hardAlpha"/>
<feOffset dy="35"/>
<feGaussianBlur stdDeviation="15.5"/>
<feComposite in2="hardAlpha" operator="out"/>
<feColorMatrix type="matrix" values="0 0 0 0 0 0 0 0 0 0 0 0 0 0 0 0 0 0 1 0"/>
<feBlend mode="normal" in2="BackgroundImageFix" result="effect1_dropShadow_43_2250"/>
<feBlend mode="normal" in="SourceGraphic" in2="effect1_dropShadow_43_2250" result="shape"/>
</filter>
</defs>
</svg>
